<svg width="44" height="37" viewBox="0 0 44 37" fill="none" xmlns="http://www.w3.org/2000/svg">
<rect x="0.5" y="0.5" width="43" height="36" rx="7.5" fill="white" stroke="#F1F1F1"/>
<path d="M28.1482 30.0264L15.9113 30.038C13.2192 30.0405 11.0147 27.8403 11.0116 25.1482L11 12.9113C10.9976 10.2192 13.1977 8.01469 15.8899 8.01163L28.1267 8C30.8189 7.99755 33.0233 10.1977 33.0264 12.8899L33.038 25.1267C33.0411 27.8195 30.8403 30.0239 28.1482 30.0264Z" fill="url(#paint0_radial_374_348)"/>
<path d="M28.1482 30.0264L15.9113 30.038C13.2192 30.0405 11.0147 27.8403 11.0116 25.1482L11 12.9113C10.9976 10.2192 13.1977 8.01469 15.8899 8.01163L28.1267 8C30.8189 7.99755 33.0233 10.1977 33.0264 12.8899L33.038 25.1267C33.0411 27.8195 30.8403 30.0239 28.1482 30.0264Z" fill="url(#paint1_radial_374_348)"/>
<path d="M22.0194 23.3021C19.6583 23.3021 17.7365 21.381 17.7365 19.0192C17.7365 16.6575 19.6583 14.7363 22.0194 14.7363C24.3805 14.7363 26.3023 16.6575 26.3023 19.0192C26.3023 21.381 24.3805 23.3021 22.0194 23.3021ZM22.0194 15.96C20.3325 15.96 18.9601 17.3324 18.9601 19.0192C18.9601 20.7061 20.3325 22.0785 22.0194 22.0785C23.7062 22.0785 25.0786 20.7061 25.0786 19.0192C25.0786 17.3324 23.7062 15.96 22.0194 15.96Z" fill="white"/>
<path d="M26.6081 15.3482C27.115 15.3482 27.5259 14.9373 27.5259 14.4305C27.5259 13.9236 27.115 13.5127 26.6081 13.5127C26.1013 13.5127 25.6904 13.9236 25.6904 14.4305C25.6904 14.9373 26.1013 15.3482 26.6081 15.3482Z" fill="white"/>
<path d="M25.6903 26.9734H18.3482C15.9871 26.9734 14.0653 25.0522 14.0653 22.6905V15.3483C14.0653 12.9866 15.9871 11.0654 18.3482 11.0654H25.6903C28.0515 11.0654 29.9733 12.9866 29.9733 15.3483V22.6905C29.9733 25.0522 28.0515 26.9734 25.6903 26.9734ZM18.3482 12.2891C16.6614 12.2891 15.289 13.6615 15.289 15.3483V22.6905C15.289 24.3773 16.6614 25.7497 18.3482 25.7497H25.6903C27.3772 25.7497 28.7496 24.3773 28.7496 22.6905V15.3483C28.7496 13.6615 27.3772 12.2891 25.6903 12.2891H18.3482Z" fill="white"/>
<defs>
<radialGradient id="paint0_radial_374_348" cx="0" cy="0" r="1" gradientUnits="userSpaceOnUse" gradientTransform="translate(19.1926 30.0539) scale(27.4712)">
<stop stop-color="#FFDD55"/>
<stop offset="0.328" stop-color="#FF543F"/>
<stop offset="0.348" stop-color="#FC5245"/>
<stop offset="0.504" stop-color="#E64771"/>
<stop offset="0.643" stop-color="#D53E91"/>
<stop offset="0.761" stop-color="#CC39A4"/>
<stop offset="0.841" stop-color="#C837AB"/>
</radialGradient>
<radialGradient id="paint1_radial_374_348" cx="0" cy="0" r="1" gradientUnits="userSpaceOnUse" gradientTransform="translate(14.5463 7.72486) scale(18.2409 12.1539)">
<stop stop-color="#4168C9"/>
<stop offset="0.999" stop-color="#4168C9" stop-opacity="0"/>
</radialGradient>
</defs>
</svg>
