<?xml version="1.0" encoding="utf-8"?>
<!-- Generator: Adobe Illustrator 27.6.1, SVG Export Plug-In . SVG Version: 6.00 Build 0)  -->
<svg version="1.1" id="Layer_1" xmlns="http://www.w3.org/2000/svg" xmlns:xlink="http://www.w3.org/1999/xlink" x="0px" y="0px"
	 viewBox="0 0 4000 4000" style="enable-background:new 0 0 4000 4000;" xml:space="preserve">
<style type="text/css">
	.st0{fill:#FFFFFF;}
</style>
<g>
	<g>
		<g>
			<path class="st0" d="M1374.8,1987.4c0-5.9,3.3-9.8,9.9-11.6c6.6-1.8,14.9-3.5,25-5.1c10-1.6,21-4,32.8-7.2
				c11.9-3.2,22.8-9.1,32.8-17.8c23.3-20.1,34.9-53.6,34.9-100.6c0-30.1-10.2-53.1-30.4-69.1c-20.3-16-49.5-23.9-87.6-23.9
				c-38.1,0-73.8,8-107.1,23.9c-12.3,5.9-23.4,11.4-33.2,16.4c-9.8,5-18.8,7.5-27,7.5s-12.3-2.5-12.3-7.5c0-7.8,7.5-20.5,22.6-38.3
				c15.1-16.4,38.9-31.7,71.5-45.8c32.6-14.1,66.9-21.2,103-21.2c68-0.4,120.9,15.5,158.7,47.9c32.8,28.3,49.3,64.9,49.3,109.8
				c0,44.9-16.2,85.1-48.6,120.4c-32.4,35.4-72.9,53-121.5,53C1399.1,2018.2,1374.8,2008,1374.8,1987.4z M1328.3,2171.5
				c0,26.9-26.2,40.4-78.7,40.4c-11.4,0-18.1-5.8-20.2-17.4c-2.1-11.6-3.1-27.9-3.1-48.9c0-44.2,8.9-99,26.7-164.2
				c29.6-107.7,61.3-171.1,95.1-190.2c4.6-2.7,9.6-4.1,15.1-4.1c5.5,0,8.2,8.9,8.2,26.7s-0.9,33.5-2.7,47.2
				c-3.7,27.4-10.2,62.7-19.5,106.1c-9.4,43.3-14,68.9-14,76.6L1328.3,2171.5z"/>
			<path class="st0" d="M1693,2203.7c-45.6,0-68.4-42.6-68.4-128c0-46.5,5.7-88.7,17.1-126.6c17.8-58.4,37.9-87.6,60.2-87.6
				c13.2,0,23.7,8.9,31.5,26.7c6.4,13.7,9.3,27.1,8.9,40.4c0,18.3-5.5,50.4-16.4,96.5c-10.5,40.1-15.7,65-15.7,74.6
				s2.4,16.2,7.2,19.8c4.8,3.7,10.5,5.5,17.1,5.5c6.6,0,14.9-4.3,25-13c10-8.7,20.1-18.1,30.1-28.4c10-10.3,19.3-19.7,27.7-28.4
				c8.4-8.7,14.3-13,17.4-13c6.4,0,9.6,7.8,9.6,23.3c0,31.9-16.1,63.1-48.2,93.4C1763.8,2189.2,1729.5,2204.1,1693,2203.7z
				 M1721.1,1806.1c-12.3-18.2-18.5-37.9-18.5-58.8c0-21,3.3-38.4,9.9-52.3c6.6-13.9,12.9-24.2,18.8-30.8c5.9-6.6,12.8-9.9,20.5-9.9
				c12.8,0,24.4,9.5,34.9,28.4c10.5,18.9,15.7,34.8,15.7,47.6c0,23.7-8.3,42.3-25,55.8C1760.9,1799.4,1742.1,1806.1,1721.1,1806.1z"
				/>
			<path class="st0" d="M2011.2,1904c53.8,0,80.7,9.8,80.7,29.4c0,10.9-3.9,29-11.6,54.1c-41.1,68-82.6,116.1-124.5,144.4
				c20.1,5,39.2,7.5,57.5,7.5c18.2,0,35.2-5,51-15.1c15.7-10,29.5-21.2,41.4-33.5c11.9-12.3,21.8-23.5,29.8-33.5
				c8-10,14.5-15.1,19.5-15.1c6.4,0,9.6,8.7,9.6,26c0,17.3-5,34.6-15.1,51.7c-10,17.1-23.9,32.3-41.7,45.5
				c-39.2,29.2-86.5,43.8-141.6,43.8c-22.4,0-41.7-2.9-58.2-8.6c-16.4-5.7-28.2-11.1-35.2-16.1c-7.1-5-10.6-12-10.6-20.9
				c0-8.9,1.6-20.6,4.8-35.2c6.8-9.6,17.9-20.1,33.2-31.5c15.3-11.4,30.6-23.3,45.8-35.6c15.3-12.3,28.7-24.6,40.4-36.9
				c11.6-12.3,17.4-24.4,17.4-36.3c0-4.6-10.7-6.8-32.2-6.8l-112.9,6.2c-11.9,0-20.6-3.5-26.3-10.6c-5.7-7.1-8.6-15.2-8.6-24.3
				c0-21,7.9-39.5,23.6-55.4c15.7-16,36.4-24.2,61.9-24.6c10.9,0,23.9,3.7,39,10.9c15.1,7.3,27,12.6,35.9,15.7
				C1993.1,1902.4,2002.1,1904,2011.2,1904z"/>
			<path class="st0" d="M2331.4,1904c53.8,0,80.7,9.8,80.7,29.4c0,10.9-3.9,29-11.6,54.1c-41.1,68-82.6,116.1-124.5,144.4
				c20.1,5,39.2,7.5,57.5,7.5c18.2,0,35.2-5,51-15.1c15.7-10,29.5-21.2,41.4-33.5c11.9-12.3,21.8-23.5,29.8-33.5
				c8-10,14.5-15.1,19.5-15.1c6.4,0,9.6,8.7,9.6,26c0,17.3-5,34.6-15.1,51.7c-10,17.1-23.9,32.3-41.7,45.5
				c-39.2,29.2-86.5,43.8-141.6,43.8c-22.4,0-41.7-2.9-58.2-8.6c-16.4-5.7-28.2-11.1-35.2-16.1c-7.1-5-10.6-12-10.6-20.9
				c0-8.9,1.6-20.6,4.8-35.2c6.8-9.6,17.9-20.1,33.2-31.5c15.3-11.4,30.6-23.3,45.8-35.6c15.3-12.3,28.7-24.6,40.4-36.9
				s17.4-24.4,17.4-36.3c0-4.6-10.7-6.8-32.2-6.8l-112.9,6.2c-11.9,0-20.6-3.5-26.3-10.6c-5.7-7.1-8.6-15.2-8.6-24.3
				c0-21,7.9-39.5,23.6-55.4c15.7-16,36.4-24.2,61.9-24.6c10.9,0,23.9,3.7,39,10.9c15.1,7.3,27,12.6,35.9,15.7
				C2313.3,1902.4,2322.3,1904,2331.4,1904z"/>
			<path class="st0" d="M2852.8,2053.8c8.2-9.1,14.1-13.7,17.8-13.7c8.2,0,12.3,10.5,12.3,31.5c0,11.4-4.8,25.2-14.4,41.4
				c-9.6,16.2-22,31-37.3,44.5c-15.3,13.5-32.3,24.5-51,33.2c-18.7,8.7-36.9,13-54.7,13c-24.2,0-40.4-21.2-48.6-63.6
				c-11.9,19.6-27.4,35.7-46.5,48.2c-19.2,12.6-44.8,18.8-77,18.8c-32.2,0-58.1-10-77.7-30.1c-19.6-20.1-29.2-44.5-28.7-73.2
				c0-77.5,25.8-138.7,77.3-183.4c21.9-18.7,42.3-31,61.2-36.9c18.9-5.9,38.9-8.9,59.9-8.9c21,0,38.1,3.7,51.3,10.9
				c6.4-13.2,13.7-19.8,21.9-19.8c16,0,31.1,7,45.5,20.9c14.4,13.9,21.6,27,21.6,39.3c-6.4,15.1-15.7,33.1-28.1,54.1
				c-3.7,21-5.5,50.4-5.5,88.3 M2547.6,2081.2c0,35.1,13,52.7,39,52.7c27.8-0.4,50.9-15.3,69.1-44.5c6.4-10,11.6-22.3,15.7-36.9
				c0-51.1,4.6-94.9,13.7-131.4c-36.9,7.3-69.1,25.1-96.5,53.4C2561.3,2002.7,2547.6,2038.3,2547.6,2081.2z"/>
		</g>
		<g>
			<path class="st0" d="M2293.4,1471v17.5h23.5v11.1h-23.5v18.5h26.4v11.4h-40.4v-69.8h40.4v11.4H2293.4z"/>
			<path class="st0" d="M2343.4,1527.6c-3.9-1.7-7-4.1-9.2-7.2c-2.3-3.1-3.4-6.8-3.5-11.1h15c0.2,2.9,1.2,5.1,3,6.8
				c1.8,1.7,4.3,2.5,7.5,2.5c3.3,0,5.8-0.8,7.7-2.3c1.9-1.6,2.8-3.6,2.8-6.1c0-2.1-0.6-3.8-1.9-5.1c-1.3-1.3-2.8-2.4-4.7-3.1
				c-1.9-0.8-4.5-1.6-7.8-2.5c-4.5-1.3-8.2-2.6-11-3.9c-2.8-1.3-5.3-3.3-7.3-5.9c-2-2.6-3-6.1-3-10.5c0-4.1,1-7.7,3.1-10.8
				c2.1-3.1,5-5.4,8.7-7c3.7-1.6,8-2.4,12.8-2.4c7.2,0,13,1.7,17.5,5.2c4.5,3.5,7,8.4,7.4,14.6H2365c-0.1-2.4-1.1-4.4-3-5.9
				c-1.9-1.6-4.4-2.3-7.5-2.3c-2.7,0-4.9,0.7-6.5,2.1c-1.6,1.4-2.4,3.4-2.4,6.1c0,1.9,0.6,3.4,1.8,4.6c1.2,1.2,2.8,2.2,4.6,3
				c1.8,0.8,4.4,1.6,7.7,2.6c4.5,1.3,8.2,2.7,11.1,4c2.9,1.3,5.3,3.3,7.4,6c2.1,2.7,3.1,6.2,3.1,10.5c0,3.7-1,7.2-2.9,10.4
				c-1.9,3.2-4.8,5.7-8.5,7.6c-3.7,1.9-8.2,2.8-13.3,2.8C2351.7,1530.1,2347.3,1529.3,2343.4,1527.6z"/>
			<path class="st0" d="M2440.7,1459.7v11.3h-18.6v58.4h-14V1471h-18.6v-11.3H2440.7z"/>
			<path class="st0" d="M2494.5,1464c5.6,2.9,9.8,6.9,12.9,12.2c3,5.3,4.5,11.4,4.5,18.4s-1.5,13.1-4.5,18.3
				c-3,5.2-7.3,9.3-12.9,12.1c-5.6,2.9-12,4.3-19.3,4.3h-24.3v-69.7h24.3C2482.5,1459.7,2489,1461.2,2494.5,1464z M2491.7,1511.5
				c4-4,6-9.6,6-16.9c0-7.3-2-12.9-6-17c-4-4.1-9.6-6.1-17-6.1h-9.9v46h9.9C2482,1517.5,2487.7,1515.5,2491.7,1511.5z"/>
		</g>
		<g>
			<path class="st0" d="M2282.2,1607.2c6.4-5.3,11.5-9.8,15.3-13.3c3.8-3.6,7-7.3,9.5-11.1c2.5-3.9,3.8-7.6,3.8-11.4
				c0-3.4-0.8-6.1-2.4-8c-1.6-1.9-4.1-2.9-7.4-2.9c-3.3,0-5.9,1.1-7.7,3.3c-1.8,2.2-2.7,5.3-2.8,9.1h-13.6c0.3-8,2.6-14,7.1-18.2
				c4.5-4.1,10.2-6.2,17.1-6.2c7.6,0,13.4,2,17.5,6c4.1,4,6.1,9.3,6.1,15.9c0,5.2-1.4,10.1-4.2,14.9c-2.8,4.7-6,8.8-9.6,12.3
				c-3.6,3.5-8.3,7.7-14.1,12.6h29.4v11.6H2277v-10.4L2282.2,1607.2z"/>
			<path class="st0" d="M2341.3,1558.6c4.2-6.5,11.1-9.8,20.7-9.8c9.6,0,16.5,3.3,20.7,9.8c4.2,6.5,6.2,15.5,6.2,27
				c0,11.6-2.1,20.7-6.2,27.2c-4.2,6.6-11.1,9.9-20.7,9.9c-9.6,0-16.6-3.3-20.7-9.9c-4.2-6.6-6.2-15.7-6.2-27.2
				C2335.1,1574.1,2337.2,1565.1,2341.3,1558.6z M2374.3,1573.2c-0.6-3.4-1.9-6.1-3.8-8.2c-1.9-2.1-4.7-3.2-8.4-3.2
				c-3.7,0-6.5,1.1-8.4,3.2c-1.9,2.1-3.2,4.9-3.8,8.2c-0.6,3.4-0.9,7.5-0.9,12.4c0,5.1,0.3,9.3,0.9,12.7c0.6,3.4,1.9,6.2,3.8,8.3
				c1.9,2.1,4.8,3.1,8.5,3.1c3.7,0,6.6-1,8.5-3.1c1.9-2.1,3.2-4.9,3.8-8.3c0.6-3.4,0.9-7.7,0.9-12.7
				C2375.2,1580.7,2374.9,1576.6,2374.3,1573.2z"/>
			<path class="st0" d="M2404,1607.2c6.4-5.3,11.5-9.8,15.3-13.3c3.8-3.6,7-7.3,9.5-11.1c2.5-3.9,3.8-7.6,3.8-11.4
				c0-3.4-0.8-6.1-2.4-8c-1.6-1.9-4.1-2.9-7.4-2.9c-3.3,0-5.9,1.1-7.7,3.3c-1.8,2.2-2.7,5.3-2.8,9.1h-13.6c0.3-8,2.6-14,7.1-18.2
				c4.5-4.1,10.2-6.2,17.1-6.2c7.6,0,13.4,2,17.5,6c4.1,4,6.1,9.3,6.1,15.9c0,5.2-1.4,10.1-4.2,14.9c-2.8,4.7-6,8.8-9.6,12.3
				c-3.6,3.5-8.3,7.7-14.1,12.6h29.4v11.6h-49.3v-10.4L2404,1607.2z"/>
			<path class="st0" d="M2461.2,1607.2c6.4-5.3,11.5-9.8,15.3-13.3c3.8-3.6,7-7.3,9.5-11.1c2.5-3.9,3.8-7.6,3.8-11.4
				c0-3.4-0.8-6.1-2.4-8c-1.6-1.9-4.1-2.9-7.4-2.9c-3.3,0-5.9,1.1-7.7,3.3c-1.8,2.2-2.7,5.3-2.8,9.1H2456c0.3-8,2.6-14,7.1-18.2
				c4.5-4.1,10.2-6.2,17.1-6.2c7.6,0,13.4,2,17.5,6c4.1,4,6.1,9.3,6.1,15.9c0,5.2-1.4,10.1-4.2,14.9c-2.8,4.7-6,8.8-9.6,12.3
				c-3.6,3.5-8.3,7.7-14.1,12.6h29.4v11.6h-49.3v-10.4L2461.2,1607.2z"/>
		</g>
		<g>
			<path class="st0" d="M2864.9,2238.2c-1.3,5.2-3.1,10.1-5.4,14.3c-1.2,2-2.4,4-3.7,5.7c-1.3,1.8-2.6,3.2-3.9,4.7
				c-5.4,5.6-10.7,9.2-15.7,12c-5,2.8-9.7,5-14.3,6.9c-4.6,1.9-9,3.6-13.3,5.1c-8.6,3.1-17,5.9-24.9,8.9c-4,1.4-8,3-12.1,4.5
				l-12.2,4.1c-16.3,5.3-32.8,9.7-49.5,13.3c-16.6,3.7-33.3,6.7-50.1,9.1c-16.8,2.4-33.5,4.4-50.3,6l-12.6,1.1l-12.6,1l-25.1,1.8
				l-25.2,1.3l-25.2,0.9l-25.2,0.6l-25.2,0.2c-67.1,0.2-134.1-3.1-200.7-8.2c-66.7-5-133-11.9-199.2-18.7
				c-66.1-6.8-132-13.7-197.8-18.8c-8.2-0.7-16.4-1.2-24.7-1.8c-8.2-0.6-16.4-1.1-24.6-1.6c-8.2-0.5-16.5-1-24.7-1.4
				c-8.2-0.5-16.5-0.9-24.7-1.3c-33-1.7-66-2.8-99-3.7c-16.5-0.5-33-0.7-49.5-0.9l-24.7-0.2c-8.2-0.1-16.5,0-24.7,0l-12.4,0
				l-12.4,0.1l-12.4,0.1l-6.2,0.1l-6.2,0.1l-24.7,0.5l-24.7,0.7c-8.2,0.2-16.5,0.6-24.7,0.9l-12.3,0.5l-12.3,0.6l-12.3,0.6
				c-4.1,0.2-8.2,0.4-12.3,0.6l-24.6,1.4c-16.4,1.1-32.8,2.2-49.2,3.6l-12.3,1c-4.1,0.3-8.1,0.8-12.2,1.1l-24.2,2.3l-1,0.1
				c-16.9,1.6-31.9-10.8-33.6-27.7c-1.6-16.9,10.8-31.9,27.7-33.6l0.2,0l25.4-2.3l6.4-0.6c2.1-0.2,4.2-0.4,6.3-0.5l12.6-0.9
				c16.8-1.3,33.5-2.2,50.3-3.2c33.6-1.8,67.1-2.9,100.7-3.5c67.1-1.2,134.2-0.2,201.1,2.8c33.5,1.5,66.9,3.4,100.3,5.7
				c8.3,0.5,16.7,1.2,25,1.8c8.3,0.6,16.7,1.2,25,2c8.4,0.7,16.7,1.4,25.1,2.2c8.3,0.8,16.7,1.6,25,2.5
				c66.7,6.9,132.8,15.9,198.7,25.2c65.9,9.3,131.5,18.7,197.2,26.3c65.7,7.6,131.5,13.1,197.4,14.6l24.7,0.3l24.7,0l24.7-0.5
				l24.7-0.9c8.2-0.5,16.4-0.9,24.6-1.4l12.3-0.9l12.3-1c16.4-1.4,32.6-3.1,48.8-5.5c16.2-2.3,32.2-5.1,48-8.6
				c15.8-3.5,31.4-7.8,46.7-12.8l11.4-3.9c3.8-1.4,7.5-2.8,11.3-4.3c7.6-3.1,14.6-6.7,20.8-11c3.1-2.2,6-4.6,8.4-7.1
				c2.5-2.5,4.5-5.2,5.8-7.9c1.3-2.6,1.6-5.2,0.7-6.7c-0.3-0.3-0.5-0.6-1-0.8c-0.3-0.2-0.9-0.2-1.3-0.1c-1.1,0.2-2.2,0.9-3.4,2
				c0.2-17,14.1-30.6,31.1-30.5C2851.5,2207.3,2865.1,2221.2,2864.9,2238.2z"/>
		</g>
		<g>
			<g>
				<path class="st0" d="M1997.1,2888.3c-95.4,0-189.2-15.1-278.9-44.8c-86.8-28.7-168.4-70.7-242.5-124.7
					c-73.3-53.4-137.8-117.4-191.7-190.2c-54.6-73.7-97.1-154.9-126.5-241.4c-3.3-9.8,1.9-20.5,11.7-23.8
					c9.8-3.3,20.5,1.9,23.8,11.7c117,344.3,440.2,575.7,804.1,575.7c313.3,0,600.1-171.6,748.5-447.9c4.9-9.1,16.3-12.6,25.4-7.7
					c9.1,4.9,12.6,16.3,7.7,25.4c-74.6,139-185.3,255.9-320,338.2c-68.1,41.6-141.3,73.7-217.8,95.5
					C2162,2876.9,2080,2888.3,1997.1,2888.3z"/>
			</g>
		</g>
		<g>
			<g>
				<path class="st0" d="M2834.2,1790.6c-8.2,0-15.8-5.5-18.1-13.8c-100.7-367.5-437.5-624.1-818.9-624.1
					c-333.4,0-637.4,196.5-774.4,500.5c-4.3,9.5-15.4,13.7-24.8,9.4c-9.5-4.3-13.7-15.4-9.4-24.8c34.5-76.5,79.7-147.7,134.3-211.7
					c54.4-63.6,117.3-119.2,187.1-165.2c144.7-95.4,313.2-145.8,487.2-145.8c99.9,0,197.9,16.5,291.4,49
					c90.4,31.4,174.7,77.2,250.7,136c75.2,58.2,140.3,127.6,193.4,206.4c54,80,94.2,167.6,119.6,260.3c2.7,10-3.1,20.3-13.1,23.1
					C2837.5,1790.4,2835.8,1790.6,2834.2,1790.6z"/>
			</g>
		</g>
		<g>
			<path class="st0" d="M2236.8,1360.5l-7.5-7.5l-75.3,73.7c-2.1,2.1-5.6,2.1-7.7,0c-2.1-2.1-2.1-5.5,0-7.7l73.7-75.3l-5.3-5.3
				l-75.3,73.7c-2.1,2.1-5.6,2.1-7.7,0c-2.1-2.1-2.1-5.5,0-7.7l73.7-75.3l-5.3-5.3l-75.3,73.7c-2.1,2.1-5.6,2.1-7.7,0
				c-2.1-2.1-2.1-5.5,0-7.7l73.7-75.3l-7.4-7.4l-97.5,91.8c-9,9-13.1,21.2-12.1,33c0.9,10.9-3,21.7-10.9,29.4l-183.9,180.3
				c-6.6,6.4-6.6,17-0.1,23.5c6.5,6.5,17.1,6.5,23.5-0.1l180.3-183.9c7.7-7.8,18.4-11.8,29.4-10.9c11.8,1,23.9-3.1,33-12.1
				L2236.8,1360.5z"/>
		</g>
		<g>
			<path class="st0" d="M1929.7,1323.6c-7.3-5.6-15.3-10-24.7-11.8c-12.7-2.5-26.1,0.6-37.2,7.3c-16.9,10.2-30.4,28.6-31.8,48.6
				c-1.9,26.2,20,43.6,36.2,61c11.6,12.4,23.1,24.8,34.7,37.2c25.4,28.6,68.8,3.5,76.5,11.4l180.3,184c6.5,6.6,17,6.6,23.5,0.1
				c6.5-6.5,6.5-17.1-0.1-23.5l-183.9-180.3c-7.8-7.7,14.1-51-11.4-76.5c-12.2-11.4-24.4-22.7-36.6-34.1
				C1946.8,1339.2,1938.8,1330.5,1929.7,1323.6z"/>
		</g>
		<g>
			<path class="st0" d="M1648.5,2465.8h-39v25h32.6c3,0,5.3,0.7,6.8,2c1.5,1.4,2.2,3.2,2.2,5.4s-0.8,4.1-2.3,5.4
				c-1.5,1.3-3.8,2-6.7,2h-32.6v32.2c0,4.1-0.9,7.1-2.8,9.1c-1.8,2-4.2,3-7.1,3c-2.9,0-5.3-1-7.2-3c-1.8-2-2.8-5-2.8-9.1v-75.2
				c0-2.8,0.4-5.2,1.3-7c0.8-1.8,2.2-3.1,4-3.9c1.8-0.8,4.1-1.2,6.9-1.2h46.7c3.2,0,5.5,0.7,7,2.1s2.3,3.2,2.3,5.5
				c0,2.3-0.8,4.2-2.3,5.6S1651.7,2465.8,1648.5,2465.8z"/>
			<path class="st0" d="M1684.2,2523.6v15.2c0,3.7-0.9,6.5-2.6,8.3s-3.9,2.8-6.6,2.8c-2.6,0-4.8-0.9-6.5-2.8
				c-1.7-1.9-2.5-4.6-2.5-8.3v-50.7c0-8.2,3-12.3,8.9-12.3c3,0,5.2,1,6.5,2.9c1.3,1.9,2.1,4.7,2.2,8.5c2.2-3.7,4.4-6.6,6.7-8.5
				c2.3-1.9,5.3-2.9,9.2-2.9c3.8,0,7.5,1,11.1,2.9c3.6,1.9,5.4,4.4,5.4,7.6c0,2.2-0.8,4.1-2.3,5.5c-1.5,1.4-3.2,2.2-5,2.2
				c-0.7,0-2.3-0.4-4.8-1.2c-2.6-0.8-4.8-1.2-6.8-1.2c-2.7,0-4.8,0.7-6.5,2.1c-1.7,1.4-3,3.5-3.9,6.2c-0.9,2.8-1.6,6-1.9,9.8
				C1684.4,2513.5,1684.2,2518.2,1684.2,2523.6z"/>
			<path class="st0" d="M1773.3,2517.4h-35.6c0,4.1,0.9,7.8,2.5,10.9c1.6,3.2,3.8,5.5,6.5,7.1c2.7,1.6,5.7,2.4,8.9,2.4
				c2.2,0,4.2-0.3,6-0.8c1.8-0.5,3.5-1.3,5.2-2.4c1.7-1.1,3.2-2.3,4.7-3.5c1.4-1.2,3.3-2.9,5.5-5.1c0.9-0.8,2.3-1.2,4-1.2
				c1.9,0,3.4,0.5,4.5,1.5c1.2,1,1.7,2.5,1.7,4.3c0,1.6-0.6,3.6-1.9,5.8c-1.3,2.2-3.2,4.3-5.8,6.3c-2.6,2-5.9,3.7-9.8,5
				c-3.9,1.3-8.5,2-13.6,2c-11.7,0-20.8-3.3-27.3-10c-6.5-6.7-9.7-15.7-9.7-27.1c0-5.4,0.8-10.4,2.4-15c1.6-4.6,3.9-8.5,7-11.8
				c3.1-3.3,6.8-5.8,11.3-7.6c4.5-1.8,9.5-2.6,14.9-2.6c7.1,0,13.2,1.5,18.3,4.5c5.1,3,8.9,6.9,11.4,11.6c2.5,4.8,3.8,9.6,3.8,14.5
				c0,4.6-1.3,7.5-3.9,8.9C1781.8,2516.7,1778.1,2517.4,1773.3,2517.4z M1737.7,2507h33c-0.4-6.2-2.1-10.9-5-14
				c-2.9-3.1-6.7-4.6-11.5-4.6c-4.5,0-8.3,1.6-11.2,4.7C1740.1,2496.3,1738.3,2500.9,1737.7,2507z"/>
			<path class="st0" d="M1862.2,2526.1c0,5-1.2,9.3-3.7,12.9c-2.4,3.6-6.1,6.3-10.8,8.1s-10.6,2.8-17.4,2.8c-6.5,0-12.1-1-16.8-3
				c-4.7-2-8.1-4.5-10.3-7.5c-2.2-3-3.3-6-3.3-9c0-2,0.7-3.7,2.1-5.1c1.4-1.4,3.2-2.1,5.4-2.1c1.9,0,3.4,0.5,4.4,1.4
				c1,0.9,2,2.2,2.9,3.9c1.9,3.2,4.1,5.7,6.7,7.3c2.6,1.6,6.1,2.4,10.6,2.4c3.6,0,6.6-0.8,9-2.4c2.3-1.6,3.5-3.5,3.5-5.6
				c0-3.2-1.2-5.5-3.6-7c-2.4-1.5-6.4-2.9-12-4.2c-6.3-1.6-11.4-3.2-15.3-4.9c-3.9-1.7-7.1-4-9.4-6.8s-3.5-6.2-3.5-10.3
				c0-3.6,1.1-7.1,3.3-10.3c2.2-3.2,5.4-5.8,9.6-7.8s9.4-2.9,15.4-2.9c4.7,0,8.9,0.5,12.7,1.5c3.8,1,6.9,2.3,9.4,3.9
				c2.5,1.6,4.4,3.5,5.7,5.5c1.3,2,2,4,2,5.9c0,2.1-0.7,3.8-2.1,5.1c-1.4,1.3-3.4,2-6,2c-1.9,0-3.5-0.5-4.8-1.6
				c-1.3-1.1-2.8-2.7-4.5-4.8c-1.4-1.8-3-3.2-4.9-4.3c-1.9-1.1-4.4-1.6-7.6-1.6c-3.3,0-6,0.7-8.2,2.1c-2.2,1.4-3.3,3.1-3.3,5.2
				c0,1.9,0.8,3.5,2.4,4.7c1.6,1.2,3.8,2.2,6.5,3c2.7,0.8,6.4,1.8,11.2,2.9c5.6,1.4,10.3,3,13.8,4.9c3.6,1.9,6.3,4.2,8.1,6.8
				C1861.3,2519.8,1862.2,2522.8,1862.2,2526.1z"/>
			<path class="st0" d="M1895.4,2459.9v27c2.3-2.7,4.6-4.8,6.8-6.3c2.2-1.6,4.6-2.7,7.3-3.5c2.7-0.8,5.5-1.2,8.6-1.2
				c4.6,0,8.7,1,12.3,2.9c3.6,2,6.4,4.8,8.4,8.5c1.3,2.2,2.2,4.6,2.6,7.3c0.4,2.7,0.7,5.8,0.7,9.3v34.9c0,3.6-0.8,6.4-2.5,8.3
				c-1.7,1.9-3.9,2.8-6.6,2.8c-6,0-9-3.7-9-11.1v-30.7c0-5.8-0.9-10.3-2.6-13.4c-1.7-3.1-5-4.7-9.9-4.7c-3.2,0-6.2,0.9-8.8,2.8
				c-2.6,1.8-4.5,4.4-5.8,7.6c-1,2.7-1.5,7.5-1.5,14.5v24.1c0,3.6-0.8,6.3-2.4,8.2c-1.6,1.9-3.9,2.8-6.8,2.8c-6,0-9-3.7-9-11.1
				v-78.9c0-3.7,0.8-6.5,2.4-8.3c1.6-1.8,3.8-2.8,6.6-2.8c2.9,0,5.1,0.9,6.8,2.8C1894.6,2453.5,1895.4,2456.3,1895.4,2459.9z"/>
			<path class="st0" d="M2006,2471.2c0-4.1,1.1-7.9,3.2-11.3c2.2-3.4,5.3-6.1,9.5-8.1c4.2-2,9.1-3,14.7-3c5.6,0,10.4,1,14.5,3.1
				c4.1,2.1,7.1,4.8,9.2,8.2c2,3.4,3,6.9,3,10.5c0,5-1.6,9.3-4.9,13c-3.3,3.7-8.1,7.4-14.5,11.3c2.2,2.6,4.3,5.1,6.2,7.4
				c1.9,2.3,3.8,4.5,5.5,6.5c1.8,2,3.4,3.7,4.9,5.1c0.7-1.2,1.7-3.6,3.1-7c1.4-3.4,2.7-5.9,3.9-7.4c1.2-1.5,2.9-2.3,5.2-2.3
				c2.1,0,3.9,0.7,5.5,2.2c1.6,1.5,2.4,3.3,2.4,5.4c0,2-0.7,4.7-2.1,8.3c-1.4,3.6-3.4,7.5-6,11.9c1.6,1.4,4.3,3.6,7.8,6.5
				c3.6,2.9,5.8,4.9,6.6,5.9c0.8,1,1.2,2.4,1.2,4.2c0,2.3-0.8,4.3-2.5,5.8c-1.7,1.6-3.5,2.4-5.6,2.4c-2.1,0-4.1-0.7-6.1-2
				c-2-1.3-6.1-4.6-12.5-9.8c-2.9,2.7-5.9,4.9-9,6.7c-3.1,1.7-6.4,3-9.9,3.9s-7.5,1.3-11.8,1.3c-5.6,0-10.5-0.8-15-2.4
				c-4.4-1.6-8.1-3.8-11-6.6c-2.9-2.8-5.1-5.8-6.5-9.2c-1.4-3.4-2.1-6.8-2.1-10.2c0-3.3,0.5-6.4,1.6-9.2c1.1-2.8,2.6-5.3,4.5-7.5
				c1.9-2.2,4.3-4.4,7.1-6.4c2.8-2,6.1-4,9.8-5.9c-3.3-4.2-5.9-7.9-7.6-11.2C2006.8,2478.1,2006,2474.7,2006,2471.2z M2024.8,2503.2
				c-4.5,2.6-7.9,5.2-10.2,7.9c-2.2,2.6-3.4,5.7-3.4,9.3c0,2,0.4,4,1.2,5.9s2,3.6,3.6,5.2c1.6,1.6,3.4,2.8,5.5,3.7
				c2.1,0.8,4.3,1.3,6.6,1.3c2.3,0,4.5-0.4,6.6-1.1c2.1-0.7,4.2-1.7,6.1-3c1.9-1.3,3.9-2.9,5.9-4.9c-4-3.6-7.5-7.3-10.7-10.8
				C2033,2513,2029.2,2508.5,2024.8,2503.2z M2031.6,2484.9c4.5-2.9,7.8-5.3,9.8-7.3c2-2,3-4.4,3-7.2c0-2.8-1-5.1-3-6.9
				c-2-1.9-4.6-2.8-7.6-2.8s-5.6,1-7.7,2.9c-2.1,1.9-3.1,4.2-3.1,6.7c0,1.3,0.4,2.8,1.2,4.3c0.8,1.5,1.7,3.1,2.9,4.6
				C2028.3,2480.7,2029.8,2482.6,2031.6,2484.9z"/>
			<path class="st0" d="M2196.8,2466.8h-21.6v71c0,4.1-0.9,7.1-2.7,9.1c-1.8,2-4.2,3-7.1,3c-2.9,0-5.3-1-7.2-3c-1.8-2-2.8-5-2.8-9.1
				v-71h-21.6c-3.4,0-5.9-0.7-7.5-2.2c-1.6-1.5-2.5-3.5-2.5-5.9c0-2.5,0.9-4.5,2.6-6c1.7-1.5,4.2-2.2,7.4-2.2h62.9
				c3.4,0,6,0.8,7.6,2.3c1.7,1.5,2.5,3.5,2.5,5.9c0,2.4-0.8,4.4-2.5,5.9C2202.7,2466.1,2200.2,2466.8,2196.8,2466.8z"/>
			<path class="st0" d="M2256.6,2539.6c-4.4,3.4-8.7,6-12.8,7.7c-4.1,1.7-8.7,2.6-13.8,2.6c-4.7,0-8.8-0.9-12.3-2.8
				s-6.3-4.3-8.2-7.5c-1.9-3.2-2.9-6.6-2.9-10.3c0-5,1.6-9.2,4.7-12.7c3.2-3.5,7.5-5.9,13-7.1c1.2-0.3,4-0.9,8.6-1.8
				c4.6-0.9,8.5-1.8,11.8-2.6c3.3-0.8,6.8-1.7,10.6-2.8c-0.2-4.8-1.2-8.3-2.9-10.6c-1.7-2.2-5.3-3.4-10.6-3.4
				c-4.6,0-8.1,0.6-10.4,1.9c-2.3,1.3-4.3,3.2-6,5.8c-1.7,2.6-2.8,4.3-3.5,5.1c-0.7,0.8-2.2,1.2-4.4,1.2c-2,0-3.8-0.7-5.3-2
				c-1.5-1.3-2.2-3-2.2-5c0-3.2,1.1-6.3,3.4-9.3c2.3-3,5.8-5.5,10.6-7.5c4.8-2,10.8-2.9,17.9-2.9c8,0,14.3,0.9,18.9,2.8
				c4.6,1.9,7.8,4.9,9.7,9c1.9,4.1,2.8,9.5,2.8,16.3c0,4.3,0,7.9,0,10.9c0,3-0.1,6.3-0.1,9.9c0,3.4,0.6,7,1.7,10.7
				c1.1,3.7,1.7,6.1,1.7,7.2c0,1.9-0.9,3.6-2.6,5.1s-3.7,2.3-6,2.3c-1.9,0-3.7-0.9-5.5-2.6C2260.6,2545.5,2258.7,2543,2256.6,2539.6
				z M2255.4,2513.3c-2.7,1-6.5,2-11.6,3.1c-5.1,1.1-8.6,1.9-10.6,2.4c-2,0.5-3.8,1.5-5.6,3c-1.8,1.5-2.7,3.6-2.7,6.2
				c0,2.8,1,5.1,3.1,7s4.8,2.9,8.2,2.9c3.6,0,6.9-0.8,10-2.4c3-1.6,5.3-3.6,6.7-6.1c1.6-2.8,2.5-7.3,2.5-13.6V2513.3z"/>
			<path class="st0" d="M2350.4,2526.1c0,5-1.2,9.3-3.7,12.9c-2.4,3.6-6.1,6.3-10.8,8.1s-10.6,2.8-17.4,2.8c-6.5,0-12.1-1-16.8-3
				c-4.7-2-8.1-4.5-10.3-7.5c-2.2-3-3.3-6-3.3-9c0-2,0.7-3.7,2.1-5.1c1.4-1.4,3.2-2.1,5.4-2.1c1.9,0,3.4,0.5,4.4,1.4
				c1,0.9,2,2.2,2.9,3.9c1.9,3.2,4.1,5.7,6.7,7.3c2.6,1.6,6.1,2.4,10.6,2.4c3.6,0,6.6-0.8,9-2.4c2.3-1.6,3.5-3.5,3.5-5.6
				c0-3.2-1.2-5.5-3.6-7c-2.4-1.5-6.4-2.9-12-4.2c-6.3-1.6-11.4-3.2-15.3-4.9c-3.9-1.7-7.1-4-9.4-6.8s-3.5-6.2-3.5-10.3
				c0-3.6,1.1-7.1,3.3-10.3c2.2-3.2,5.4-5.8,9.6-7.8s9.4-2.9,15.4-2.9c4.7,0,8.9,0.5,12.7,1.5c3.8,1,6.9,2.3,9.4,3.9
				c2.5,1.6,4.4,3.5,5.7,5.5c1.3,2,2,4,2,5.9c0,2.1-0.7,3.8-2.1,5.1c-1.4,1.3-3.4,2-6,2c-1.9,0-3.5-0.5-4.8-1.6
				c-1.3-1.1-2.8-2.7-4.5-4.8c-1.4-1.8-3-3.2-4.9-4.3c-1.9-1.1-4.4-1.6-7.6-1.6c-3.3,0-6,0.7-8.2,2.1c-2.2,1.4-3.3,3.1-3.3,5.2
				c0,1.9,0.8,3.5,2.4,4.7c1.6,1.2,3.8,2.2,6.5,3c2.7,0.8,6.4,1.8,11.2,2.9c5.6,1.4,10.3,3,13.8,4.9c3.6,1.9,6.3,4.2,8.1,6.8
				C2349.4,2519.8,2350.4,2522.8,2350.4,2526.1z"/>
			<path class="st0" d="M2366.8,2477.5h2v-10.9c0-2.9,0.1-5.2,0.2-6.9c0.2-1.7,0.6-3.1,1.3-4.3c0.7-1.2,1.7-2.3,3.1-3
				c1.3-0.8,2.8-1.2,4.5-1.2c2.3,0,4.4,0.9,6.3,2.6c1.2,1.2,2,2.6,2.4,4.2c0.3,1.7,0.5,4,0.5,7.1v12.4h6.7c2.6,0,4.5,0.6,5.9,1.8
				c1.4,1.2,2,2.8,2,4.7c0,2.4-1,4.2-2.9,5.1c-1.9,1-4.7,1.5-8.3,1.5h-3.4v33.5c0,2.8,0.1,5,0.3,6.6s0.7,2.8,1.6,3.7
				c0.9,1,2.3,1.4,4.2,1.4c1.1,0,2.5-0.2,4.3-0.6c1.8-0.4,3.2-0.6,4.3-0.6c1.5,0,2.8,0.6,4,1.8c1.2,1.2,1.8,2.6,1.8,4.4
				c0,2.9-1.6,5.2-4.8,6.7s-7.8,2.3-13.8,2.3c-5.7,0-10-1-12.9-2.9c-2.9-1.9-4.9-4.6-5.8-7.9c-0.9-3.4-1.4-7.9-1.4-13.5v-34.9h-2.4
				c-2.6,0-4.6-0.6-6-1.9c-1.4-1.2-2.1-2.8-2.1-4.7c0-1.9,0.7-3.5,2.2-4.7C2361.9,2478.1,2364,2477.5,2366.8,2477.5z"/>
			<path class="st0" d="M2430.9,2552.2l1.7-4.1l-22.4-56.4c-1.4-3.2-2.1-5.6-2.1-7.1c0-1.6,0.4-3,1.2-4.3c0.8-1.3,1.9-2.4,3.3-3.2
				c1.4-0.8,2.9-1.2,4.4-1.2c2.6,0,4.6,0.8,5.9,2.5s2.5,4.1,3.5,7.2l15.4,44.8l14.6-41.7c1.2-3.4,2.2-6,3.1-7.9
				c0.9-1.9,1.9-3.2,3-3.9c1-0.7,2.5-1,4.4-1c1.4,0,2.7,0.4,4,1.1s2.2,1.7,2.9,3c0.7,1.2,1,2.6,1,3.9c-0.2,0.8-0.5,2-0.9,3.6
				c-0.4,1.6-0.9,3.1-1.5,4.7l-23.7,62.1c-2,5.5-4,9.8-6,12.9c-2,3.1-4.5,5.5-7.8,7.2c-3.2,1.7-7.6,2.5-13,2.5
				c-5.3,0-9.3-0.6-12-1.7c-2.7-1.2-4-3.3-4-6.3c0-2.1,0.6-3.7,1.9-4.8s3.1-1.7,5.6-1.7c1,0,1.9,0.1,2.9,0.4c1.2,0.3,2.2,0.4,3,0.4
				c2.1,0,3.7-0.3,4.9-0.9c1.2-0.6,2.3-1.7,3.2-3.2C2428.5,2557.4,2429.6,2555.1,2430.9,2552.2z"/>
		</g>
	</g>
	<g>
		<path class="st0" d="M2000,2954.3c-128.8,0-253.8-25.2-371.4-75c-56.5-23.9-111.1-53.5-162.1-88c-50.5-34.1-98-73.3-141.2-116.5
			c-43.2-43.2-82.4-90.7-116.5-141.2c-34.5-51-64.1-105.6-88-162.1c-49.8-117.7-75-242.6-75-371.4s25.2-253.8,75-371.4
			c23.9-56.5,53.5-111.1,88-162.1c34.1-50.5,73.3-98,116.5-141.2c43.2-43.2,90.7-82.4,141.2-116.5c51-34.5,105.6-64.1,162.1-88
			c117.7-49.8,242.6-75,371.4-75s253.8,25.2,371.4,75c56.5,23.9,111.1,53.5,162.1,88c50.5,34.1,98,73.3,141.2,116.5
			c43.2,43.2,82.4,90.7,116.5,141.2c34.5,51,64.1,105.6,88,162.1c49.8,117.7,75,242.6,75,371.4s-25.2,253.8-75,371.4
			c-23.9,56.5-53.5,111.1-88,162.1c-34.1,50.5-73.3,98-116.5,141.2c-43.2,43.2-90.7,82.4-141.2,116.5c-51,34.5-105.6,64.1-162.1,88
			C2253.8,2929,2128.8,2954.3,2000,2954.3z M2000,1074c-510.6,0-926,415.4-926,926s415.4,926,926,926s926-415.4,926-926
			S2510.6,1074,2000,1074z"/>
	</g>
</g>
</svg>
