<svg width="44" height="37" viewBox="0 0 44 37" fill="none" xmlns="http://www.w3.org/2000/svg">
<rect x="0.5" y="0.5" width="43" height="36" rx="7.5" fill="white" stroke="#F1F1F1"/>
<path d="M26.7451 15.9416C28.1598 16.9565 29.893 17.5536 31.7648 17.5536V13.9388C31.4106 13.9388 31.0572 13.9018 30.7106 13.8281V16.6735C28.8389 16.6735 27.106 16.0763 25.6909 15.0615V22.4383C25.6909 26.1286 22.71 29.12 19.0331 29.12C17.6611 29.12 16.3859 28.7037 15.3267 27.9898C16.5357 29.2304 18.2217 30 20.087 30C23.7642 30 26.7453 27.0087 26.7453 23.3182V15.9416H26.7451V15.9416ZM28.0456 12.2946C27.3225 11.5019 26.8478 10.4775 26.7451 9.34495V8.88H25.7461C25.9976 10.3195 26.8553 11.5493 28.0456 12.2946ZM17.6523 25.158C17.2484 24.6265 17.0301 23.9763 17.0311 23.3077C17.0311 21.6199 18.3945 20.2514 20.0766 20.2514C20.3901 20.2513 20.7018 20.2995 21.0005 20.3946V16.699C20.6514 16.651 20.299 16.6306 19.9468 16.6381V19.5146C19.6478 19.4194 19.336 19.3711 19.0225 19.3714C17.3403 19.3714 15.977 20.7398 15.977 22.4278C15.977 23.6213 16.6585 24.6546 17.6523 25.158Z" fill="#FF004F"/>
<path d="M25.691 15.0614C27.1062 16.0763 28.8391 16.6734 30.7108 16.6734V13.828C29.666 13.6047 28.7411 13.0567 28.0457 12.2946C26.8553 11.5492 25.9977 10.3194 25.7462 8.88H23.1222V23.3181C23.1163 25.0013 21.7551 26.3642 20.0766 26.3642C19.0875 26.3642 18.2087 25.891 17.6522 25.158C16.6584 24.6547 15.9769 23.6212 15.9769 22.4278C15.9769 20.74 17.3403 19.3715 19.0224 19.3715C19.3447 19.3715 19.6554 19.4219 19.9467 19.5146V16.6381C16.3344 16.713 13.4292 19.6752 13.4292 23.3182C13.4292 25.1367 14.1527 26.7853 15.3268 27.9899C16.3861 28.7037 17.6613 29.12 19.0333 29.12C22.7103 29.12 25.6911 26.1285 25.6911 22.4383V15.0614H25.691Z" fill="black"/>
<path d="M30.7107 13.828V13.0586C29.7685 13.06 28.8449 12.7953 28.0456 12.2945C28.7532 13.072 29.6849 13.608 30.7107 13.828ZM25.7461 8.87998C25.7222 8.74242 25.7037 8.60395 25.6909 8.46495V8H22.0678V22.4382C22.0621 24.1212 20.701 25.4841 19.0223 25.4841C18.5295 25.4841 18.0642 25.3667 17.6521 25.1581C18.2086 25.891 19.0874 26.3641 20.0765 26.3641C21.7549 26.3641 23.1162 25.0013 23.1221 23.3182V8.87998H25.7461ZM19.9468 16.6381V15.8191C19.6441 15.7775 19.3388 15.7567 19.0332 15.7569C15.3559 15.7568 12.375 18.7483 12.375 22.4382C12.375 24.7516 13.5466 26.7905 15.3268 27.9897C14.1526 26.7852 13.4292 25.1366 13.4292 23.3181C13.4292 19.6751 16.3343 16.713 19.9468 16.6381Z" fill="#00F2EA"/>
</svg>
