<svg width="44" height="37" viewBox="0 0 44 37" fill="none" xmlns="http://www.w3.org/2000/svg">
<rect x="0.5" y="0.5" width="43" height="36" rx="7.5" fill="white" stroke="#F1F1F1"/>
<g clip-path="url(#clip0_63_394)">
<path d="M32.5617 13.67C32.4374 13.202 32.1922 12.7748 31.8509 12.4313C31.5095 12.0877 31.084 11.8399 30.6167 11.7125C28.8967 11.25 22.0217 11.25 22.0217 11.25C22.0217 11.25 15.1467 11.25 13.4267 11.7125C12.9595 11.8399 12.5339 12.0877 12.1926 12.4313C11.8512 12.7748 11.6061 13.202 11.4817 13.67C11.0217 15.3975 11.0217 19 11.0217 19C11.0217 19 11.0217 22.6025 11.4817 24.33C11.6061 24.798 11.8512 25.2252 12.1926 25.5687C12.5339 25.9123 12.9595 26.1601 13.4267 26.2875C15.1467 26.75 22.0217 26.75 22.0217 26.75C22.0217 26.75 28.8967 26.75 30.6167 26.2875C31.084 26.1601 31.5095 25.9123 31.8509 25.5687C32.1922 25.2252 32.4374 24.798 32.5617 24.33C33.0217 22.6025 33.0217 19 33.0217 19C33.0217 19 33.0217 15.3975 32.5617 13.67Z" fill="#FF0302"/>
<path d="M19.7717 22.2713V15.7288L25.5217 19L19.7717 22.2713Z" fill="#FEFEFE"/>
</g>
<defs>
<clipPath id="clip0_63_394">
<rect width="22" height="22" fill="white" transform="translate(11 8)"/>
</clipPath>
</defs>
</svg>
